<?xml version="1.0" standalone="no"?><!DOCTYPE svg PUBLIC "-//W3C//DTD SVG 1.1//EN" "http://www.w3.org/Graphics/SVG/1.1/DTD/svg11.dtd"><svg t="1757487974920" class="icon" viewBox="0 0 1024 1024" version="1.1" xmlns="http://www.w3.org/2000/svg" p-id="20895" xmlns:xlink="http://www.w3.org/1999/xlink" width="200" height="200"><path d="M877.312 302.890667C889.984 362.538667 896 432 896 512c0 79.36-5.973333 149.461333-18.688 209.109333-12.714667 59.690667-29.397333 108.842667-50.773333 146.858667-21.333333 38.016-48.725333 69.504-81.493334 93.098667a302.933333 302.933333 0 0 1-105.472 49.152c-37.418667 9.173333-80.170667 13.781333-127.573333 13.781333-47.402667 0-90.154667-4.608-127.573333-13.781333a302.933333 302.933333 0 0 1-105.514667-49.152 279.466667 279.466667 0 0 1-81.493333-93.098667c-21.333333-38.016-38.698667-87.168-50.730667-146.858667C134.016 661.461333 128 592 128 512c0-79.36 5.973333-149.461333 18.688-209.109333 12.714667-59.690667 29.397333-108.842667 50.773333-146.858667A265.6 265.6 0 0 1 277.589333 63.573333C311.04 39.978667 346.368 22.954667 383.786667 13.781333 421.12 4.608 463.914667 0 511.36 0c47.36 0 90.112 4.608 127.530667 13.781333a302.933333 302.933333 0 0 1 105.514666 49.152 279.466667 279.466667 0 0 1 81.493334 93.098667c21.333333 38.656 39.381333 87.168 51.413333 146.858667z m-400.042667 648.96l269.824-265.472L569.429333 512l178.346667-175.018667-270.506667-265.514666v349.44L329.002667 275.285333 274.901333 328.448 461.226667 512l-186.325334 183.552 54.101334 53.12 148.266666-145.536v348.757333zM553.386667 252.416l86.826666 85.248-86.144 84.565333-0.682666-169.813333z m0.682666 349.44l86.186667 84.565333-86.869333 85.248 0.682666-169.813333z" fill="#232323" p-id="20896"></path><path d="M768 768m-256 0a256 256 0 1 0 512 0 256 256 0 1 0-512 0Z" fill="#515151" p-id="20897" data-spm-anchor-id="a313x.search_index.0.i8.30123a81Ky6IVQ" class="selected"></path><path d="M896 725.333333a42.666667 42.666667 0 1 1 0 85.333334H640a42.666667 42.666667 0 1 1 0-85.333334h256z" fill="#FFFFFF" p-id="20898"></path></svg>