<?xml version="1.0" standalone="no"?><!DOCTYPE svg PUBLIC "-//W3C//DTD SVG 1.1//EN" "http://www.w3.org/Graphics/SVG/1.1/DTD/svg11.dtd"><svg t="1757487992638" class="icon" viewBox="0 0 1024 1024" version="1.1" xmlns="http://www.w3.org/2000/svg" p-id="21115" xmlns:xlink="http://www.w3.org/1999/xlink" width="200" height="200"><path d="M695.381044 990.164921A510.719787 510.719787 0 0 1 511.999787 1023.999573C229.247904 1023.999573 0 794.751669 0 511.999787S229.247904 0 511.999787 0s511.999787 229.247904 511.999786 511.999787c0 64.597306-11.946662 126.421281-33.834652 183.381257A213.162578 213.162578 0 0 0 810.666329 597.333084a212.351912 212.351912 0 0 0-124.287948 39.893317 25.599989 25.599989 0 0 0-7.125331-29.866654l-114.645285-95.48796 114.602619-95.48796a25.770656 25.770656 0 0 0 0.042666-39.381317L541.141108 261.973224a25.557323 25.557323 0 0 0-42.026649 19.626659l-0.170667 174.634594-121.599949-101.290625a25.599989 25.599989 0 0 0-32.72532 39.33865l140.629275 117.162618-140.629275 117.162618a25.514656 25.514656 0 0 0 16.341327 45.226648 25.514656 25.514656 0 0 0 16.383993-5.887998l121.727949-101.418624-0.170667 175.786593a25.514656 25.514656 0 0 0 25.59999 25.685323 25.343989 25.343989 0 0 0 16.341326-5.930664l106.709289-88.917296A212.479911 212.479911 0 0 0 597.333084 810.666329c0 75.349302 39.039984 141.567941 98.04796 179.498592z" fill="#007AFF" p-id="21116"></path><path d="M550.229104 336.213193l-0.085333 121.130616 72.703969-60.586641-72.618636-60.501308zM550.229104 566.613097l-0.085333 121.130616 72.746636-60.586641-72.661303-60.543975z" fill="#007AFF" p-id="21117"></path><path d="M810.666329 639.999733a170.666596 170.666596 0 1 0 0 341.333191 170.666596 170.666596 0 0 0 0-341.333191z m73.727969 114.943952l-80.2133 111.231954a12.117328 12.117328 0 0 1-19.711992 0l-47.530646-65.834639a3.071999 3.071999 0 0 1 2.474665-4.821331h17.919993c3.839998 0 7.551997 1.834666 9.813329 5.034664l27.135989 37.631984L854.186311 755.199685a12.202662 12.202662 0 0 1 9.813329-5.077331h17.919993c2.474666 0 3.925332 2.815999 2.474665 4.863998z" fill="#30ED4F" p-id="21118"></path></svg>